<?xml version="1.0" standalone="no"?><!DOCTYPE svg PUBLIC "-//W3C//DTD SVG 1.1//EN" "http://www.w3.org/Graphics/SVG/1.1/DTD/svg11.dtd"><svg t="1778827371078" class="icon" viewBox="0 0 1391 1024" version="1.1" xmlns="http://www.w3.org/2000/svg" p-id="2006" xmlns:xlink="http://www.w3.org/1999/xlink" width="271.6796875" height="200"><path d="M1366.88660315 68.88745648c-14.46749452-7.23539317-20.71369948 6.5556349-29.16541557 13.56389332-2.88033166 2.26147183-5.33931197 5.20105604-7.79829227 7.91350552-21.13998858 23.05911241-45.83842119 38.20801111-78.14092944 36.39916282-47.19464594-2.71244948-87.49460078 12.4348033-123.10372976 49.28658968-7.57280343-45.4434043-32.72550551-72.57283681-71.0174577-89.98156144-20.06521337-9.04259555-40.29995485-18.08683701-54.34609801-37.75703347-9.77666865-14.01651685-12.4348033-29.61639319-17.351118-44.98913481-3.1091123-9.26973028-6.21822462-18.76494937-16.67300561-20.34830884-11.38965438-1.80884829-15.82701105 7.91350553-20.29234812 16.05249987-17.80374155 33.23408978-24.72805888 69.86038734-24.02196614 106.93766253 1.52739874 83.42592655 36.06175253 149.89410612 104.62187584 197.14635872 7.79993816 5.42489895 9.80629491 10.85144384 7.34731463 18.76330344-4.6628455 16.2779887-10.25891847 32.10499977-15.14725278 48.38298848-3.1107582 10.40046619-7.77195781 12.66029212-18.70898863 8.13899436-37.61548573-16.05249989-70.11550242-39.79137057-98.85627482-68.50251668-48.74837912-48.15749966-92.83555865-101.28727474-147.80216238-142.88584771a649.99375012 649.99375012 0 0 0-39.1971993-27.35656726c-56.09733966-55.61673574 7.34731463-101.28562883 22.04358974-106.71217371 15.34476125-5.65203369 5.34095787-25.09509544-44.31266832-24.86960662s-95.06905011 17.1832358-152.9472577 39.79137058c-8.47640463 3.39056185-17.38074426 5.87752251-26.47930055 7.91350554-52.56523007-10.17497736-107.10719062-12.4348033-164.10977735-5.87916842-107.30469906 12.20931449-193.02007782 63.98286482-256.04008894 152.3810668-75.68194913 106.25955015-93.51531693 226.98988662-71.66923563 352.91798731 22.89123023 132.71251624 89.27382281 242.58976297 191.23920994 328.50100431 105.75096588 89.07631432 227.52645128 132.71251624 366.45554616 124.34803305 84.38548848-4.97556721 178.32380269-16.50512344 284.30025739-108.07004435 26.73441563 13.56553923 54.79707562 18.99208409 101.31525511 23.06075831 35.86259817 3.39056185 70.3689716-1.80884829 97.07540688-7.46088195 41.85368805-9.04259555 38.94208421-48.6084773 23.82281179-55.84222457-122.6790866-58.33083112-95.74716251-34.59196042-120.22010628-53.80788746 62.34189871-75.2869322 156.28021293-153.51344862 193.02007784-406.95300952 2.90995792-20.12117411 0.45097766-32.78146623 0-49.05945494-0.22713473-9.94784264 1.97673047-13.79267396 13.14089605-14.92176397 30.71914876-3.61769657 60.56267668-12.20931449 87.94722431-27.58205608 79.46752789-44.31266836 111.54290139-117.1126399 119.11735074-204.38175185 1.13073592-13.3384045-0.22548881-27.12943254-14.04614312-34.13769099M674.24913112 854.30452643c-118.86388155-95.40810633-176.54458067-126.8333478-200.36739246-125.47712308-22.26907858 1.35622475-18.25636509 27.35656728-13.36803079 44.31266833 5.11546905 16.73061227 11.81265167 28.26016847 21.16632307 42.95644363 6.44535932 9.72235382 10.91069638 24.19149423-6.47004789 35.04293808-38.2935981 24.19149423-104.84736469-8.13899434-107.95483109-9.72070793-77.4907974-46.57414018-142.29332232-108.07004434-187.93423507-192.17243738-44.08553363-80.9389659-69.66123298-167.75545432-73.90108121-260.44946522-1.13073592-22.38264595 5.34095787-30.29615146 27.13107848-34.36647162a262.82285854 262.82285854 0 0 1 87.06995761-2.25982593c121.35248812 18.08848291 224.67245406 73.47808391 311.26180773 161.19981942 49.4281374 49.96305614 86.81648843 109.65011201 125.36355569 167.98094314 40.95008685 61.94523591 85.0372664 120.95417938 141.13460605 169.33552196 19.81009828 16.9561011 35.60748309 29.84352795 50.75473587 39.33874702-45.64091272 5.20105604-121.80181985 6.33014607-173.88644599-35.72105042m57.00094085-374.16989738c0-9.94784264 7.80158407-17.86134819 17.60623306-17.86134818q3.33460112 0.05760663 5.9910899 1.1307359a17.71980046 17.71980046 0 0 1 11.36167403 16.73061228 17.63421345 17.63421345 0 0 1-17.57825272 17.86134818 17.436705 17.436705 0 0 1-17.38074427-17.86134818m176.9972042 92.69401091c-11.33369365 4.7484325-22.69372177 8.81875261-33.63075258 9.2697303-16.90014035 0.90524709-35.38199426-6.10301134-45.38579766-14.69462926-15.59987633-13.3400504-26.73606154-20.80093238-31.39890702-44.08717954-2.00635675-9.94784264-0.90524709-25.32058426 0.87726674-34.13769096 4.01271348-18.99208409-0.45262356-31.19975267-13.56553924-42.27833124-10.68191576-9.04424146-24.27708123-11.53120212-39.19719931-11.53120212-5.56809258 0-10.68191576-2.48531476-14.46914042-4.52129778a14.83617697 14.83617697 0 0 1-6.44371341-20.79928646c1.55373321-3.16507304 9.12818253-10.85308976 10.90905046-12.20931449 20.26107595-11.75669094 43.63291007-7.91185963 65.22387628 0.9052471 20.03723302 8.36448318 35.15650543 23.73887069 57.00258677 45.44340425 22.26907858 26.22583135 26.28179207 33.46122452 38.94208419 53.1297751 10.03342964 15.37274163 19.16161218 31.19975267 25.37983679 49.28494376 3.81355913 11.30571329-1.10275555 20.57379765-14.24365159 26.22583134" fill="#4D6BFE" p-id="2007"></path></svg>