<?xml version="1.0" standalone="no"?><!DOCTYPE svg PUBLIC "-//W3C//DTD SVG 1.1//EN" "http://www.w3.org/Graphics/SVG/1.1/DTD/svg11.dtd"><svg t="1779185717661" class="icon" viewBox="0 0 1032 1024" version="1.1" xmlns="http://www.w3.org/2000/svg" p-id="2282" xmlns:xlink="http://www.w3.org/1999/xlink" width="201.5625" height="200"><path d="M3.797919 0H1021.94072v1018.142801H3.797919z" fill="#CCCCCC" fill-opacity="0" p-id="2283"></path><path d="M448.476832 1016.175802l-13.149997-498.465903c-26.514995-9.719998 80.596984-135.736973 124.562976-124.616976 128.916975-32.399994 269.059947-237.587954 13.203997-389.757924-774.159849 0-689.329865 951.857814-124.616976 1012.839803z" fill="#B3DDF2" p-id="2284"></path><path d="M446.021833 1015.941802c-230.672955-53.02799-456.424911-375.799927-180.295965-665.50487 63.421988-55.901989-63.262988-220.941957-167.039967-129.918975-275.724946 381.326926 86.908983 796.457844 347.335932 795.423845z" fill="#0055E9" p-id="2285"></path><path d="M408.82784 536.274895c0-2.650999-6.362999 4.575999 0 0z m0 0v39.770992c0 5.302999-7.423999 40.566992-10.605998 55.67999l39.771992 84.844983s26.513995 7.953998 29.164995 10.605998 15.642997 4.506999 21.210996 5.302999l55.679989 34.467993 92.799982-13.256997 119.312976-37.119993 111.359979-95.449981 34.467993-58.331989 29.165994-148.478971-5.302999-68.936986v-60.981989L864.870751 173.029966l-31.816994-39.769992-55.679989-50.37799-47.724991-29.164994-13.256997-7.954999-15.907997-5.301999-29.165994-10.605998-92.799982-23.862995C780.026768 72.277986 795.935765 276.435946 737.603776 374.539927S552.890812 529.274897 430.038836 517.714899l-21.210996 18.559996z" fill="#00BCFF" p-id="2286"></path><path d="M461.82983 1016.207802c180.295965 47.697991 575.191888-124.425976 570.053888-493.163904C1045.150716 358.62993 891.687746 31.572994 642.125795 19.275996c278.217946 56.659989 384.507925 567.719889 23.915995 694.669865-180.338965 45.073991-246.607952-92.799982-233.324955-190.901963-185.534964 9.375998-283.955945 407.20992 29.112995 493.163904z" fill="#0055DF" p-id="2287"></path></svg>