<?xml version="1.0" standalone="no"?><!DOCTYPE svg PUBLIC "-//W3C//DTD SVG 1.1//EN" "http://www.w3.org/Graphics/SVG/1.1/DTD/svg11.dtd"><svg t="1778826696010" class="icon" viewBox="0 0 1024 1024" version="1.1" xmlns="http://www.w3.org/2000/svg" p-id="2006" xmlns:xlink="http://www.w3.org/1999/xlink" width="200" height="200"><path d="M956.48 419.072a252.16 252.16 0 0 0-22.208-209.472 262.272 262.272 0 0 0-226.752-129.536c-18.432 0-36.8 1.92-54.848 5.76A258.368 258.368 0 0 0 565.312 22.4 261.504 261.504 0 0 0 459.264 0h-2.24C343.616 0 243.072 72.192 208.192 178.624a260.352 260.352 0 0 0-99.968 43.52A256.32 256.32 0 0 0 35.328 302.336 255.552 255.552 0 0 0 0 431.872c0 64 24.064 125.632 67.52 173.056a252.16 252.16 0 0 0 22.208 209.472 260.352 260.352 0 0 0 120.32 107.2c50.624 22.272 107.072 28.096 161.28 16.64 24.256 26.944 54.016 48.512 87.36 63.36 33.344 14.72 69.504 22.4 106.048 22.4h2.24c113.472 0 214.016-72.192 248.896-178.752a260.48 260.48 0 0 0 99.968-43.456 256.384 256.384 0 0 0 72.896-80.32 255.168 255.168 0 0 0-32.256-302.4zM566.4 957.056h-0.256c-45.44 0-89.344-15.744-124.224-44.416L448 909.184l206.656-117.76a33.472 33.472 0 0 0 16.96-28.8V475.008l87.36 49.728a3.072 3.072 0 0 1 1.728 2.368v238.08c-0.192 105.792-87.04 191.68-194.368 191.872z m-417.856-176.128a189.504 189.504 0 0 1-23.232-128.576l6.144 3.648 206.72 117.76a33.984 33.984 0 0 0 33.92 0l252.288-143.744V729.728a3.072 3.072 0 0 1-1.28 2.432L414.208 851.2a196.992 196.992 0 0 1-194.432-0.064 193.472 193.472 0 0 1-71.232-70.208z m-54.4-445.056a193.216 193.216 0 0 1 101.312-84.16l-0.128 7.04V494.464a32.832 32.832 0 0 0 16.96 28.8l252.288 143.744-87.36 49.728a3.136 3.136 0 0 1-2.944 0.256l-208.896-119.04a193.472 193.472 0 0 1-71.104-70.4 190.144 190.144 0 0 1-0.064-191.68z m717.632 164.736L559.488 356.864l87.36-49.728a3.2 3.2 0 0 1 2.944-0.256l208.896 119.04a193.28 193.28 0 0 1 71.168 70.208c17.088 29.184 26.048 62.272 26.048 96 0 80.384-50.816 152.32-127.296 180.096v-242.56-0.32a32.832 32.832 0 0 0-16.832-28.736z m86.912-129.088a293.504 293.504 0 0 0-6.08-3.584l-206.72-117.76a34.112 34.112 0 0 0-33.92 0L399.68 393.792V294.208c0-1.024 0.512-1.92 1.28-2.56L609.856 172.8c29.568-16.832 63.04-25.6 97.152-25.6 107.392 0 194.56 85.888 194.56 191.872 0 10.88-0.96 21.76-2.88 32.448zM352.192 548.928l-87.36-49.792a3.136 3.136 0 0 1-1.664-2.368v-238.08c0-105.856 87.168-191.744 194.56-191.744 45.44 0 89.472 15.744 124.416 44.416A183.104 183.104 0 0 0 576 114.816L369.28 232.576a33.408 33.408 0 0 0-16.96 28.8v0.192l-0.192 287.36zM399.68 448L512 384l112.32 63.936v128l-112.32 64-112.384-64V448z" fill="#000000" p-id="2007"></path></svg>