<?xml version="1.0" standalone="no"?><!DOCTYPE svg PUBLIC "-//W3C//DTD SVG 1.1//EN" "http://www.w3.org/Graphics/SVG/1.1/DTD/svg11.dtd"><svg t="1779185684607" class="icon" viewBox="0 0 1024 1024" version="1.1" xmlns="http://www.w3.org/2000/svg" p-id="2135" xmlns:xlink="http://www.w3.org/1999/xlink" width="200" height="200"><path d="M620.757333 376.021333a77.568 77.568 0 1 0 0-155.136 77.568 77.568 0 0 0 0 155.136z m187.477334 0.469334a44.672 44.672 0 1 0 0-89.301334 44.672 44.672 0 0 0 0 89.301334z m0 357.418666a44.672 44.672 0 1 0 0-89.301333 44.672 44.672 0 0 0 0 89.258667v0.042666z m-308.224-531.2a44.672 44.672 0 1 0 3.242666-89.258666 44.672 44.672 0 0 0-3.242666 89.258666zM192.597333 376.490667a44.672 44.672 0 1 0 0-89.301334 44.672 44.672 0 0 0 0 89.301334z m0 361.344a44.672 44.672 0 1 0 0-89.344 44.672 44.672 0 0 0 0 89.344z m755.498667-191.445334a32.426667 32.426667 0 1 0 0-64.810666 32.426667 32.426667 0 0 0 0 64.810666zM726.741333 160a32.426667 32.426667 0 1 0 0-64.768 32.426667 32.426667 0 0 0 0 64.768z m202.752 118.272a14.250667 14.250667 0 1 0 0-28.458667 14.250667 14.250667 0 0 0 0 28.458667z m0 497.834667a14.250667 14.250667 0 1 0 0-28.501334 14.250667 14.250667 0 0 0 0 28.501334zM507.264 1024a14.250667 14.250667 0 1 0 0-28.501333 14.250667 14.250667 0 0 0 0 28.501333zM68.437333 776.106667a14.250667 14.250667 0 1 0 0-28.458667 14.250667 14.250667 0 0 0 0 28.501333z m0-500.224a14.250667 14.250667 0 1 0 0-28.501334 14.250667 14.250667 0 0 0 0 28.501334z m426.666667-247.381334a14.250667 14.250667 0 1 0 0-28.501333 14.250667 14.250667 0 0 0 0 28.501333zM272.64 160a32.426667 32.426667 0 1 0 0-64.768 32.426667 32.426667 0 0 0 0 64.768zM53.717333 546.389333a32.426667 32.426667 0 1 0 0-64.810666 32.426667 32.426667 0 0 0 0 64.810666z m225.834667 383.872a32.426667 32.426667 0 1 0 0-64.810666 32.426667 32.426667 0 0 0 0 64.810666z m447.189333 4.394667a32.426667 32.426667 0 1 0 1.749334-64.768 32.426667 32.426667 0 0 0-1.706667 64.768z m-226.773333-20.096a44.672 44.672 0 1 0 0-89.344 44.672 44.672 0 0 0 0 89.344z m245.418667-330.922667a73.642667 73.642667 0 1 0 0-147.2 73.642667 73.642667 0 0 0 0 147.2z m-245.418667 35.370667a105.045333 105.045333 0 1 0 0-210.048 105.045333 105.045333 0 0 0 0 210.048z m-244.949333-35.285333a73.642667 73.642667 0 1 0 0-147.2 73.642667 73.642667 0 0 0 0 147.114666v0.085334z m121.216-211.626667a73.642667 73.642667 0 1 0 2.645333-147.285333 73.642667 73.642667 0 0 0-2.645333 147.285333z m0 427.605333a73.642667 73.642667 0 0 0 0-147.242666 73.642667 73.642667 0 0 0 0 147.2z m244.48 3.882667a73.642667 73.642667 0 1 0 0-147.242667 73.642667 73.642667 0 0 0 0 147.242667z" fill="#1679FF" p-id="2136"></path><path d="M375.722667 372.138667s49.066667-14.250667 37.802666 81.493333c-11.264 95.701333 103.68 28.458667 103.68 28.458667l-16.725333-72.149334s-67.754667 11.733333-66.304-65.792c26.965333-105.557333-58.368 27.946667-58.368 27.946667h-0.085333z m40.789333 200.234666s11.264 63.36-40.704 82.986667c-102.144 42.24 8.746667 116.821333 8.746667 116.821333l49.066666-87.338666a73.642667 73.642667 0 0 1 49.109334-68.736c118.357333-37.333333-66.218667-43.733333-66.218667-43.733334z" fill="#1679FF" p-id="2137"></path><path d="M548.096 731.477333c0.085333 7.978667 1.408 15.914667 3.925333 23.552a60.842667 60.842667 0 0 0-39.253333-26.965333h-30.506667a66.688 66.688 0 0 0-40.704 28.885333 67.413333 67.413333 0 0 0 7.338667-31.402666 66.304 66.304 0 0 0-4.906667-26.026667 64 64 0 0 0 43.221334 25.045333h29.44a69.973333 69.973333 0 0 0 37.802666-24.021333 69.717333 69.717333 0 0 0-6.4 30.933333h0.042667z" fill="#1679FF" p-id="2138"></path></svg>